<svg width="71" height="75" viewBox="0 0 71 75" fill="none" xmlns="http://www.w3.org/2000/svg">
<mask id="path-1-outside-1_7_125" maskUnits="userSpaceOnUse" x="0" y="0" width="71" height="75" fill="black">
<rect fill="white" width="71" height="75"/>
<path d="M67.6523 48.0556L67.4804 47.2774C66.053 40.5533 63.7091 34.0558 60.514 27.9659C57.3855 22.0201 53.4706 16.5202 48.8741 11.6136C44.3075 8.05995 39.2203 5.22747 33.7907 3.21539L33.3013 3.03292C30.1444 1.85673 28.2309 1.14222 25.0541 3.98046C23.3588 5.49082 17.9996 10.8595 20.0851 16.6261C21.0573 19.3105 24.3398 22.7819 27.4086 22.3422C28.0914 22.2298 28.7342 21.9453 29.2758 21.5156C29.6834 21.1722 30.1881 20.964 30.7198 20.9198C31.2381 20.8862 31.7577 20.9611 32.2453 21.1396C33.0421 21.3945 33.8732 21.5272 34.71 21.5331C35.372 21.5451 36.0294 21.4209 36.6411 21.1682C36.8756 21.0556 37.1354 21.0056 37.3951 21.0231C38.6184 21.2055 39.7219 21.8571 40.4704 22.839C40.9241 23.4767 41.2331 24.2053 41.3758 24.9741C41.5186 25.7429 41.4917 26.5335 41.2971 27.291C41.2741 27.3808 41.2623 27.4731 41.2618 27.5658V39.3782C38.8295 38.554 36.2195 38.3982 33.7058 38.927C31.1922 39.4558 28.8677 40.6498 26.9765 42.3835C23.0068 40.226 18.3492 39.6999 13.9962 40.9172C11.7999 41.5118 9.75057 42.5528 7.97698 43.975C6.20339 45.3972 4.74384 47.1697 3.68999 49.1812C2.46775 51.6918 1.89257 54.4667 2.01652 57.2547C2.14046 60.0428 2.95962 62.756 4.39985 65.1488C5.80923 67.6443 7.86494 69.7164 10.3521 71.1485C12.225 72.0361 14.288 72.4506 16.3594 72.3554C17.5234 72.3554 18.7161 72.2763 19.8867 72.1686C21.0528 72.024 22.2047 71.782 23.3302 71.4453C24.8777 70.8704 26.539 70.6664 28.1801 70.8495C31.2336 71.5673 34.401 71.6623 37.4921 71.1287C44.6511 69.6297 51.429 66.6922 57.4123 62.4953C60.8913 60.2318 64.0259 57.4812 66.7198 54.3279C67.401 53.4496 67.8444 52.4116 68.0077 51.3133C68.171 50.2149 68.0486 49.0932 67.6523 48.0556ZM64.9738 52.989C62.4122 55.9591 59.4392 58.55 56.1446 60.6837C50.4195 64.7033 43.9335 67.5182 37.0821 68.9566C34.2964 69.4357 31.4424 69.3482 28.6916 68.6994C26.6948 68.4089 24.6569 68.6182 22.7614 69.3083C21.7587 69.613 20.7322 69.8336 19.6927 69.9679C16.9077 70.4683 14.0385 70.2007 11.3948 69.194C9.26455 67.9573 7.50535 66.1741 6.30016 64.0298C5.04733 61.9564 4.33205 59.6045 4.21889 57.1864C4.10574 54.7682 4.59827 52.3601 5.65202 50.1794C6.56689 48.4373 7.83308 46.9027 9.37108 45.672C10.9091 44.4413 12.6856 43.541 14.5892 43.0277C18.2285 42.0035 22.122 42.3964 25.4818 44.1269C24.9856 44.8013 24.5685 45.5301 24.2384 46.299C23.4645 48.1662 23.2109 50.2073 23.5043 52.2064C23.5419 52.4678 23.6727 52.707 23.8727 52.8802C24.0727 53.0534 24.3285 53.149 24.5934 53.1495C24.6462 53.1526 24.6992 53.1526 24.7521 53.1495C25.0411 53.1076 25.3017 52.953 25.4765 52.7197C25.6514 52.4864 25.7262 52.1935 25.6846 51.9052C25.4487 50.2992 25.6513 48.6595 26.271 47.1586C26.7325 46.0548 27.4134 45.0556 28.2727 44.2215L28.2882 44.1995C30.0657 42.5003 32.3199 41.3812 34.7508 40.9908C37.1817 40.6004 39.6742 40.9574 41.8968 42.0142C42.0647 42.094 42.2502 42.1301 42.4359 42.1191C42.6216 42.1081 42.8014 42.0505 42.9588 41.9515C43.1161 41.8525 43.2458 41.7155 43.3357 41.5531C43.4256 41.3907 43.4728 41.2082 43.473 41.0227V27.6933C43.7223 26.6309 43.7397 25.5275 43.524 24.4579C43.3083 23.3882 42.8647 22.3773 42.223 21.4936C41.6619 20.7565 40.9574 20.14 40.1517 19.681C39.346 19.2221 38.4556 18.93 37.534 18.8224C36.9587 18.7818 36.3822 18.8814 35.8541 19.1126C35.5006 19.2903 35.1044 19.3664 34.71 19.3325C34.0797 19.3269 33.4541 19.223 32.856 19.0247C32.1078 18.7702 31.317 18.6641 30.528 18.7125C29.6088 18.7879 28.732 19.1303 28.006 19.6974C27.7455 19.9209 27.4308 20.0725 27.0933 20.1371C25.3826 20.357 22.9047 17.9386 22.1552 15.8589C20.8699 12.3083 23.5683 8.23013 26.5201 5.60074C28.7136 3.64629 29.5205 3.95188 32.5275 5.07311L33.0213 5.25778C35.8166 6.30075 38.5218 7.56983 41.1097 9.05236C43.2944 10.3034 45.3927 11.6989 47.3904 13.2295C51.7973 17.9672 55.5543 23.2671 58.563 28.9904C61.6642 34.9006 63.9391 41.2066 65.3243 47.7324L65.5051 48.5415C65.9438 50.4805 66.1642 51.4501 64.9738 52.989ZM48.2943 56.3197C48.0376 56.1805 47.736 56.1485 47.4557 56.231C47.1754 56.3134 46.9394 56.5035 46.7996 56.7594C45.4908 59.1687 43.4308 61.0872 40.9312 62.2248C39.2501 62.9286 37.4397 63.2726 35.6169 63.2348C33.7941 63.1969 31.9996 62.7779 30.3494 62.005C30.2175 61.9271 30.0707 61.8775 29.9184 61.8594C29.7662 61.8413 29.6118 61.855 29.4652 61.8998C29.3186 61.9446 29.1829 62.0193 29.0669 62.1193C28.951 62.2194 28.8572 62.3424 28.7916 62.4806C28.726 62.6188 28.69 62.7691 28.686 62.922C28.6819 63.0749 28.7099 63.2269 28.7682 63.3683C28.8264 63.5098 28.9136 63.6376 29.0241 63.7435C29.1347 63.8495 29.2662 63.9312 29.4103 63.9836C31.4865 64.9304 33.7409 65.4257 36.0239 65.4368C38.0197 65.4422 39.9941 65.0263 41.8174 64.2167C44.7583 62.8805 47.1829 60.6254 48.7242 57.7927C48.8592 57.5397 48.8898 57.2442 48.8095 56.9691C48.7292 56.6939 48.5443 56.4609 48.2943 56.3197Z"/>
</mask>
<path d="M67.6523 48.0556L67.4804 47.2774C66.053 40.5533 63.7091 34.0558 60.514 27.9659C57.3855 22.0201 53.4706 16.5202 48.8741 11.6136C44.3075 8.05995 39.2203 5.22747 33.7907 3.21539L33.3013 3.03292C30.1444 1.85673 28.2309 1.14222 25.0541 3.98046C23.3588 5.49082 17.9996 10.8595 20.0851 16.6261C21.0573 19.3105 24.3398 22.7819 27.4086 22.3422C28.0914 22.2298 28.7342 21.9453 29.2758 21.5156C29.6834 21.1722 30.1881 20.964 30.7198 20.9198C31.2381 20.8862 31.7577 20.9611 32.2453 21.1396C33.0421 21.3945 33.8732 21.5272 34.71 21.5331C35.372 21.5451 36.0294 21.4209 36.6411 21.1682C36.8756 21.0556 37.1354 21.0056 37.3951 21.0231C38.6184 21.2055 39.7219 21.8571 40.4704 22.839C40.9241 23.4767 41.2331 24.2053 41.3758 24.9741C41.5186 25.7429 41.4917 26.5335 41.2971 27.291C41.2741 27.3808 41.2623 27.4731 41.2618 27.5658V39.3782C38.8295 38.554 36.2195 38.3982 33.7058 38.927C31.1922 39.4558 28.8677 40.6498 26.9765 42.3835C23.0068 40.226 18.3492 39.6999 13.9962 40.9172C11.7999 41.5118 9.75057 42.5528 7.97698 43.975C6.20339 45.3972 4.74384 47.1697 3.68999 49.1812C2.46775 51.6918 1.89257 54.4667 2.01652 57.2547C2.14046 60.0428 2.95962 62.756 4.39985 65.1488C5.80923 67.6443 7.86494 69.7164 10.3521 71.1485C12.225 72.0361 14.288 72.4506 16.3594 72.3554C17.5234 72.3554 18.7161 72.2763 19.8867 72.1686C21.0528 72.024 22.2047 71.782 23.3302 71.4453C24.8777 70.8704 26.539 70.6664 28.1801 70.8495C31.2336 71.5673 34.401 71.6623 37.4921 71.1287C44.6511 69.6297 51.429 66.6922 57.4123 62.4953C60.8913 60.2318 64.0259 57.4812 66.7198 54.3279C67.401 53.4496 67.8444 52.4116 68.0077 51.3133C68.171 50.2149 68.0486 49.0932 67.6523 48.0556ZM64.9738 52.989C62.4122 55.9591 59.4392 58.55 56.1446 60.6837C50.4195 64.7033 43.9335 67.5182 37.0821 68.9566C34.2964 69.4357 31.4424 69.3482 28.6916 68.6994C26.6948 68.4089 24.6569 68.6182 22.7614 69.3083C21.7587 69.613 20.7322 69.8336 19.6927 69.9679C16.9077 70.4683 14.0385 70.2007 11.3948 69.194C9.26455 67.9573 7.50535 66.1741 6.30016 64.0298C5.04733 61.9564 4.33205 59.6045 4.21889 57.1864C4.10574 54.7682 4.59827 52.3601 5.65202 50.1794C6.56689 48.4373 7.83308 46.9027 9.37108 45.672C10.9091 44.4413 12.6856 43.541 14.5892 43.0277C18.2285 42.0035 22.122 42.3964 25.4818 44.1269C24.9856 44.8013 24.5685 45.5301 24.2384 46.299C23.4645 48.1662 23.2109 50.2073 23.5043 52.2064C23.5419 52.4678 23.6727 52.707 23.8727 52.8802C24.0727 53.0534 24.3285 53.149 24.5934 53.1495C24.6462 53.1526 24.6992 53.1526 24.7521 53.1495C25.0411 53.1076 25.3017 52.953 25.4765 52.7197C25.6514 52.4864 25.7262 52.1935 25.6846 51.9052C25.4487 50.2992 25.6513 48.6595 26.271 47.1586C26.7325 46.0548 27.4134 45.0556 28.2727 44.2215L28.2882 44.1995C30.0657 42.5003 32.3199 41.3812 34.7508 40.9908C37.1817 40.6004 39.6742 40.9574 41.8968 42.0142C42.0647 42.094 42.2502 42.1301 42.4359 42.1191C42.6216 42.1081 42.8014 42.0505 42.9588 41.9515C43.1161 41.8525 43.2458 41.7155 43.3357 41.5531C43.4256 41.3907 43.4728 41.2082 43.473 41.0227V27.6933C43.7223 26.6309 43.7397 25.5275 43.524 24.4579C43.3083 23.3882 42.8647 22.3773 42.223 21.4936C41.6619 20.7565 40.9574 20.14 40.1517 19.681C39.346 19.2221 38.4556 18.93 37.534 18.8224C36.9587 18.7818 36.3822 18.8814 35.8541 19.1126C35.5006 19.2903 35.1044 19.3664 34.71 19.3325C34.0797 19.3269 33.4541 19.223 32.856 19.0247C32.1078 18.7702 31.317 18.6641 30.528 18.7125C29.6088 18.7879 28.732 19.1303 28.006 19.6974C27.7455 19.9209 27.4308 20.0725 27.0933 20.1371C25.3826 20.357 22.9047 17.9386 22.1552 15.8589C20.8699 12.3083 23.5683 8.23013 26.5201 5.60074C28.7136 3.64629 29.5205 3.95188 32.5275 5.07311L33.0213 5.25778C35.8166 6.30075 38.5218 7.56983 41.1097 9.05236C43.2944 10.3034 45.3927 11.6989 47.3904 13.2295C51.7973 17.9672 55.5543 23.2671 58.563 28.9904C61.6642 34.9006 63.9391 41.2066 65.3243 47.7324L65.5051 48.5415C65.9438 50.4805 66.1642 51.4501 64.9738 52.989ZM48.2943 56.3197C48.0376 56.1805 47.736 56.1485 47.4557 56.231C47.1754 56.3134 46.9394 56.5035 46.7996 56.7594C45.4908 59.1687 43.4308 61.0872 40.9312 62.2248C39.2501 62.9286 37.4397 63.2726 35.6169 63.2348C33.7941 63.1969 31.9996 62.7779 30.3494 62.005C30.2175 61.9271 30.0707 61.8775 29.9184 61.8594C29.7662 61.8413 29.6118 61.855 29.4652 61.8998C29.3186 61.9446 29.1829 62.0193 29.0669 62.1193C28.951 62.2194 28.8572 62.3424 28.7916 62.4806C28.726 62.6188 28.69 62.7691 28.686 62.922C28.6819 63.0749 28.7099 63.2269 28.7682 63.3683C28.8264 63.5098 28.9136 63.6376 29.0241 63.7435C29.1347 63.8495 29.2662 63.9312 29.4103 63.9836C31.4865 64.9304 33.7409 65.4257 36.0239 65.4368C38.0197 65.4422 39.9941 65.0263 41.8174 64.2167C44.7583 62.8805 47.1829 60.6254 48.7242 57.7927C48.8592 57.5397 48.8898 57.2442 48.8095 56.9691C48.7292 56.6939 48.5443 56.4609 48.2943 56.3197Z" fill="url(#paint0_linear_7_125)"/>
<path d="M67.6523 48.0556L67.4804 47.2774C66.053 40.5533 63.7091 34.0558 60.514 27.9659C57.3855 22.0201 53.4706 16.5202 48.8741 11.6136C44.3075 8.05995 39.2203 5.22747 33.7907 3.21539L33.3013 3.03292C30.1444 1.85673 28.2309 1.14222 25.0541 3.98046C23.3588 5.49082 17.9996 10.8595 20.0851 16.6261C21.0573 19.3105 24.3398 22.7819 27.4086 22.3422C28.0914 22.2298 28.7342 21.9453 29.2758 21.5156C29.6834 21.1722 30.1881 20.964 30.7198 20.9198C31.2381 20.8862 31.7577 20.9611 32.2453 21.1396C33.0421 21.3945 33.8732 21.5272 34.71 21.5331C35.372 21.5451 36.0294 21.4209 36.6411 21.1682C36.8756 21.0556 37.1354 21.0056 37.3951 21.0231C38.6184 21.2055 39.7219 21.8571 40.4704 22.839C40.9241 23.4767 41.2331 24.2053 41.3758 24.9741C41.5186 25.7429 41.4917 26.5335 41.2971 27.291C41.2741 27.3808 41.2623 27.4731 41.2618 27.5658V39.3782C38.8295 38.554 36.2195 38.3982 33.7058 38.927C31.1922 39.4558 28.8677 40.6498 26.9765 42.3835C23.0068 40.226 18.3492 39.6999 13.9962 40.9172C11.7999 41.5118 9.75057 42.5528 7.97698 43.975C6.20339 45.3972 4.74384 47.1697 3.68999 49.1812C2.46775 51.6918 1.89257 54.4667 2.01652 57.2547C2.14046 60.0428 2.95962 62.756 4.39985 65.1488C5.80923 67.6443 7.86494 69.7164 10.3521 71.1485C12.225 72.0361 14.288 72.4506 16.3594 72.3554C17.5234 72.3554 18.7161 72.2763 19.8867 72.1686C21.0528 72.024 22.2047 71.782 23.3302 71.4453C24.8777 70.8704 26.539 70.6664 28.1801 70.8495C31.2336 71.5673 34.401 71.6623 37.4921 71.1287C44.6511 69.6297 51.429 66.6922 57.4123 62.4953C60.8913 60.2318 64.0259 57.4812 66.7198 54.3279C67.401 53.4496 67.8444 52.4116 68.0077 51.3133C68.171 50.2149 68.0486 49.0932 67.6523 48.0556ZM64.9738 52.989C62.4122 55.9591 59.4392 58.55 56.1446 60.6837C50.4195 64.7033 43.9335 67.5182 37.0821 68.9566C34.2964 69.4357 31.4424 69.3482 28.6916 68.6994C26.6948 68.4089 24.6569 68.6182 22.7614 69.3083C21.7587 69.613 20.7322 69.8336 19.6927 69.9679C16.9077 70.4683 14.0385 70.2007 11.3948 69.194C9.26455 67.9573 7.50535 66.1741 6.30016 64.0298C5.04733 61.9564 4.33205 59.6045 4.21889 57.1864C4.10574 54.7682 4.59827 52.3601 5.65202 50.1794C6.56689 48.4373 7.83308 46.9027 9.37108 45.672C10.9091 44.4413 12.6856 43.541 14.5892 43.0277C18.2285 42.0035 22.122 42.3964 25.4818 44.1269C24.9856 44.8013 24.5685 45.5301 24.2384 46.299C23.4645 48.1662 23.2109 50.2073 23.5043 52.2064C23.5419 52.4678 23.6727 52.707 23.8727 52.8802C24.0727 53.0534 24.3285 53.149 24.5934 53.1495C24.6462 53.1526 24.6992 53.1526 24.7521 53.1495C25.0411 53.1076 25.3017 52.953 25.4765 52.7197C25.6514 52.4864 25.7262 52.1935 25.6846 51.9052C25.4487 50.2992 25.6513 48.6595 26.271 47.1586C26.7325 46.0548 27.4134 45.0556 28.2727 44.2215L28.2882 44.1995C30.0657 42.5003 32.3199 41.3812 34.7508 40.9908C37.1817 40.6004 39.6742 40.9574 41.8968 42.0142C42.0647 42.094 42.2502 42.1301 42.4359 42.1191C42.6216 42.1081 42.8014 42.0505 42.9588 41.9515C43.1161 41.8525 43.2458 41.7155 43.3357 41.5531C43.4256 41.3907 43.4728 41.2082 43.473 41.0227V27.6933C43.7223 26.6309 43.7397 25.5275 43.524 24.4579C43.3083 23.3882 42.8647 22.3773 42.223 21.4936C41.6619 20.7565 40.9574 20.14 40.1517 19.681C39.346 19.2221 38.4556 18.93 37.534 18.8224C36.9587 18.7818 36.3822 18.8814 35.8541 19.1126C35.5006 19.2903 35.1044 19.3664 34.71 19.3325C34.0797 19.3269 33.4541 19.223 32.856 19.0247C32.1078 18.7702 31.317 18.6641 30.528 18.7125C29.6088 18.7879 28.732 19.1303 28.006 19.6974C27.7455 19.9209 27.4308 20.0725 27.0933 20.1371C25.3826 20.357 22.9047 17.9386 22.1552 15.8589C20.8699 12.3083 23.5683 8.23013 26.5201 5.60074C28.7136 3.64629 29.5205 3.95188 32.5275 5.07311L33.0213 5.25778C35.8166 6.30075 38.5218 7.56983 41.1097 9.05236C43.2944 10.3034 45.3927 11.6989 47.3904 13.2295C51.7973 17.9672 55.5543 23.2671 58.563 28.9904C61.6642 34.9006 63.9391 41.2066 65.3243 47.7324L65.5051 48.5415C65.9438 50.4805 66.1642 51.4501 64.9738 52.989ZM48.2943 56.3197C48.0376 56.1805 47.736 56.1485 47.4557 56.231C47.1754 56.3134 46.9394 56.5035 46.7996 56.7594C45.4908 59.1687 43.4308 61.0872 40.9312 62.2248C39.2501 62.9286 37.4397 63.2726 35.6169 63.2348C33.7941 63.1969 31.9996 62.7779 30.3494 62.005C30.2175 61.9271 30.0707 61.8775 29.9184 61.8594C29.7662 61.8413 29.6118 61.855 29.4652 61.8998C29.3186 61.9446 29.1829 62.0193 29.0669 62.1193C28.951 62.2194 28.8572 62.3424 28.7916 62.4806C28.726 62.6188 28.69 62.7691 28.686 62.922C28.6819 63.0749 28.7099 63.2269 28.7682 63.3683C28.8264 63.5098 28.9136 63.6376 29.0241 63.7435C29.1347 63.8495 29.2662 63.9312 29.4103 63.9836C31.4865 64.9304 33.7409 65.4257 36.0239 65.4368C38.0197 65.4422 39.9941 65.0263 41.8174 64.2167C44.7583 62.8805 47.1829 60.6254 48.7242 57.7927C48.8592 57.5397 48.8898 57.2442 48.8095 56.9691C48.7292 56.6939 48.5443 56.4609 48.2943 56.3197Z" stroke="url(#paint1_linear_7_125)" stroke-width="4" mask="url(#path-1-outside-1_7_125)"/>
<defs>
<linearGradient id="paint0_linear_7_125" x1="2" y1="37.7257" x2="68.078" y2="37.7257" gradientUnits="userSpaceOnUse">
<stop stop-color="#A11719"/>
<stop offset="1" stop-color="#F82828"/>
</linearGradient>
<linearGradient id="paint1_linear_7_125" x1="2" y1="37.7257" x2="68.078" y2="37.7257" gradientUnits="userSpaceOnUse">
<stop stop-color="#A11719"/>
<stop offset="1" stop-color="#F82828"/>
</linearGradient>
</defs>
</svg>
