<svg width="65" height="84" viewBox="0 0 65 84" fill="none" xmlns="http://www.w3.org/2000/svg">
<path d="M32.5 37.3333C36.1731 37.3333 39.7637 36.2386 42.8177 34.1874C45.8718 32.1363 48.2521 29.221 49.6578 25.8101C51.0634 22.3992 51.4312 18.646 50.7146 15.025C49.998 11.404 48.2292 8.07793 45.632 5.46735C43.0347 2.85677 39.7256 1.07894 36.1231 0.358683C32.5206 -0.361574 28.7865 0.00808799 25.393 1.42092C21.9995 2.83376 19.0991 5.22631 17.0584 8.29603C15.0178 11.3657 13.9286 14.9748 13.9286 18.6667C13.9286 23.6174 15.8852 28.3653 19.368 31.866C22.8508 35.3667 27.5746 37.3333 32.5 37.3333ZM32.5 9.33334C34.3365 9.33334 36.1318 9.88073 37.6589 10.9063C39.1859 11.9319 40.3761 13.3895 41.0789 15.095C41.7817 16.8004 41.9656 18.677 41.6073 20.4875C41.249 22.298 40.3646 23.961 39.066 25.2663C37.7674 26.5716 36.1128 27.4605 34.3116 27.8207C32.5103 28.1808 30.6433 27.996 28.9465 27.2895C27.2498 26.5831 25.7995 25.3869 24.7792 23.852C23.7589 22.3171 23.2143 20.5126 23.2143 18.6667C23.2143 16.1913 24.1926 13.8173 25.934 12.067C27.6754 10.3167 30.0373 9.33334 32.5 9.33334ZM32.5 46.6667C23.8805 46.6667 15.614 50.1083 9.51903 56.2345C3.4241 62.3607 0 70.6696 0 79.3333C0 80.571 0.489158 81.758 1.35986 82.6332C2.23057 83.5083 3.41149 84 4.64286 84C5.87422 84 7.05515 83.5083 7.92585 82.6332C8.79656 81.758 9.28571 80.571 9.28571 79.3333C9.28571 73.1449 11.7315 67.21 16.085 62.8342C20.4385 58.4583 26.3432 56 32.5 56C38.6568 56 44.5615 58.4583 48.915 62.8342C53.2685 67.21 55.7143 73.1449 55.7143 79.3333C55.7143 80.571 56.2034 81.758 57.0741 82.6332C57.9448 83.5083 59.1258 84 60.3571 84C61.5885 84 62.7694 83.5083 63.6401 82.6332C64.5108 81.758 65 80.571 65 79.3333C65 70.6696 61.5759 62.3607 55.481 56.2345C49.386 50.1083 41.1195 46.6667 32.5 46.6667Z" fill="url(#paint0_linear_9_138)"/>
<defs>
<linearGradient id="paint0_linear_9_138" x1="1.42593e-07" y1="42.6461" x2="65" y2="42.6461" gradientUnits="userSpaceOnUse">
<stop stop-color="#A11719"/>
<stop offset="1" stop-color="#F82828"/>
</linearGradient>
</defs>
</svg>
